<svg width="33" height="33" viewBox="0 0 33 33" fill="none" xmlns="http://www.w3.org/2000/svg">
<g clip-path="url(#clip0_1050_1588)">
<rect width="32.5517" height="32.5517" rx="16.2759" fill="url(#paint0_radial_1050_1588)"/>
<rect width="32.5517" height="32.5517" rx="16.2759" fill="url(#paint1_radial_1050_1588)"/>
<path d="M12.886 16.2759C12.886 14.4032 14.4037 12.8848 16.2763 12.8848C18.1489 12.8848 19.6674 14.4032 19.6674 16.2759C19.6674 18.1485 18.1489 19.6669 16.2763 19.6669C14.4037 19.6669 12.886 18.1485 12.886 16.2759ZM11.0529 16.2759C11.0529 19.1608 13.3914 21.4993 16.2763 21.4993C19.1612 21.4993 21.4997 19.1608 21.4997 16.2759C21.4997 13.391 19.1612 11.0525 16.2763 11.0525C13.3914 11.0525 11.0529 13.391 11.0529 16.2759ZM20.4858 10.8453C20.4857 11.0868 20.5572 11.3228 20.6913 11.5236C20.8253 11.7244 21.0159 11.8809 21.2389 11.9734C21.4619 12.0659 21.7073 12.0902 21.9442 12.0432C22.181 11.9962 22.3985 11.88 22.5693 11.7093C22.7401 11.5387 22.8564 11.3212 22.9036 11.0845C22.9508 10.8477 22.9267 10.6022 22.8344 10.3791C22.7421 10.1561 22.5858 9.96535 22.3851 9.83114C22.1844 9.69693 21.9484 9.62524 21.707 9.62514H21.7065C21.3829 9.62529 21.0725 9.75388 20.8437 9.98267C20.6148 10.2115 20.4861 10.5217 20.4858 10.8453ZM12.1666 24.556C11.1749 24.5108 10.6358 24.3456 10.2776 24.206C9.80265 24.0211 9.46379 23.8009 9.10751 23.4451C8.75123 23.0893 8.53069 22.7508 8.34661 22.2759C8.20697 21.9178 8.04177 21.3786 7.99668 20.3868C7.94737 19.3146 7.93752 18.9925 7.93752 16.2759C7.93752 13.5594 7.94818 13.2382 7.99668 12.1651C8.04185 11.1733 8.20827 10.6351 8.34661 10.276C8.53151 9.80109 8.75172 9.46222 9.10751 9.10594C9.4633 8.74967 9.80184 8.52913 10.2776 8.34505C10.6357 8.2054 11.1749 8.0402 12.1666 7.99512C13.2389 7.9458 13.561 7.93595 16.2763 7.93595C18.9916 7.93595 19.314 7.94661 20.3872 7.99512C21.3789 8.04028 21.9171 8.2067 22.2762 8.34505C22.7512 8.52913 23.09 8.75015 23.4463 9.10594C23.8026 9.46173 24.0223 9.80109 24.2072 10.276C24.3468 10.6341 24.512 11.1733 24.5571 12.1651C24.6064 13.2382 24.6163 13.5594 24.6163 16.2759C24.6163 18.9925 24.6064 19.3137 24.5571 20.3868C24.512 21.3786 24.3459 21.9177 24.2072 22.2759C24.0223 22.7508 23.8021 23.0897 23.4463 23.4451C23.0905 23.8006 22.7512 24.0211 22.2762 24.206C21.9182 24.3457 21.3789 24.5109 20.3872 24.556C19.3149 24.6053 18.9928 24.6151 16.2763 24.6151C13.5598 24.6151 13.2386 24.6053 12.1666 24.556ZM12.0824 6.16506C10.9995 6.21437 10.2595 6.38608 9.61328 6.63755C8.94402 6.89723 8.37746 7.24561 7.8113 7.81087C7.24515 8.37613 6.89766 8.94359 6.63797 9.61286C6.38651 10.2595 6.2148 10.9991 6.16549 12.082C6.11536 13.1666 6.10388 13.5134 6.10388 16.2759C6.10388 19.0384 6.11536 19.3851 6.16549 20.4697C6.2148 21.5527 6.38651 22.2922 6.63797 22.9389C6.89766 23.6077 7.24523 24.1758 7.8113 24.7409C8.37738 25.3059 8.94402 25.6538 9.61328 25.9142C10.2607 26.1657 10.9995 26.3374 12.0824 26.3867C13.1676 26.436 13.5138 26.4483 16.2763 26.4483C19.0388 26.4483 19.3856 26.4368 20.4702 26.3867C21.5532 26.3374 22.2927 26.1657 22.9393 25.9142C23.6082 25.6538 24.1751 25.3061 24.7413 24.7409C25.3074 24.1756 25.6542 23.6077 25.9146 22.9389C26.1661 22.2922 26.3386 21.5527 26.3871 20.4697C26.4364 19.3843 26.4479 19.0384 26.4479 16.2759C26.4479 13.5134 26.4364 13.1666 26.3871 12.082C26.3378 10.999 26.1661 10.2591 25.9146 9.61286C25.6542 8.944 25.3065 8.37703 24.7413 7.81087C24.176 7.24472 23.6082 6.89723 22.9401 6.63755C22.2927 6.38608 21.5531 6.21356 20.471 6.16506C19.3864 6.11574 19.0396 6.10345 16.2771 6.10345C13.5146 6.10345 13.1676 6.11493 12.0824 6.16506Z" fill="#FDFDFD"/>
</g>
<defs>
<radialGradient id="paint0_radial_1050_1588" cx="0" cy="0" r="1" gradientUnits="userSpaceOnUse" gradientTransform="translate(8.64659 35.0589) rotate(-90) scale(32.2612 30.0054)">
<stop stop-color="#FFDD55"/>
<stop offset="0.1" stop-color="#FFDD55"/>
<stop offset="0.5" stop-color="#FF543E"/>
<stop offset="1" stop-color="#C837AB"/>
</radialGradient>
<radialGradient id="paint1_radial_1050_1588" cx="0" cy="0" r="1" gradientUnits="userSpaceOnUse" gradientTransform="translate(-5.45259 2.34497) rotate(78.6806) scale(14.4209 59.4435)">
<stop stop-color="#3771C8"/>
<stop offset="0.128" stop-color="#3771C8"/>
<stop offset="1" stop-color="#6600FF" stop-opacity="0"/>
</radialGradient>
<clipPath id="clip0_1050_1588">
<rect width="32.5517" height="32.5517" fill="white"/>
</clipPath>
</defs>
</svg>
