<svg width="33" height="33" viewBox="0 0 33 33" fill="none" xmlns="http://www.w3.org/2000/svg">
<g clip-path="url(#clip0_1050_1590)">
<rect width="32.5517" height="32.5517" rx="16.2759" fill="#419FD9"/>
<path fill-rule="evenodd" clip-rule="evenodd" d="M19.8942 24.3353C21.0318 24.833 21.4584 23.7902 21.4584 23.7902L24.4684 8.66932C24.4447 7.6502 23.07 8.26641 23.07 8.26641L6.21902 14.8788C6.21902 14.8788 5.4132 15.1632 5.4843 15.661C5.5554 16.1587 6.19531 16.3957 6.19531 16.3957L10.4377 17.8177C10.4377 17.8177 11.7175 22.0127 11.9782 22.8185C12.2152 23.6006 12.4285 23.6243 12.4285 23.6243C12.6655 23.7191 12.8788 23.5532 12.8788 23.5532L15.6281 21.0647L19.8942 24.3353ZM20.6289 11.3474C20.6289 11.3474 21.2214 10.9919 21.1977 11.3474C21.1977 11.3474 21.2925 11.3948 20.9844 11.7266C20.7 12.0111 13.9928 18.031 13.0922 18.8368C13.0211 18.8842 12.9737 18.9553 12.9737 19.0501L12.7129 21.2779C12.6655 21.5149 12.3574 21.5386 12.2863 21.3253L11.1724 17.6755C11.125 17.5333 11.1724 17.3674 11.3146 17.2726L20.6289 11.3474Z" fill="#FDFDFD"/>
</g>
<defs>
<clipPath id="clip0_1050_1590">
<rect width="32.5517" height="32.5517" fill="white"/>
</clipPath>
</defs>
</svg>
